<?xml version="1.0" standalone="no"?>
<!DOCTYPE svg PUBLIC "-//W3C//DTD SVG 20010904//EN"
 "http://www.w3.org/TR/2001/REC-SVG-20010904/DTD/svg10.dtd">
<svg version="1.0" xmlns="http://www.w3.org/2000/svg"
 width="460.000000pt" height="197.000000pt" viewBox="0 0 460.000000 197.000000"
 preserveAspectRatio="xMidYMid meet">

<g transform="translate(0.000000,197.000000) scale(0.100000,-0.100000)"
fill="#000000" stroke="none">
<path d="M247 1599 c-25 -13 -45 -34 -59 -64 -21 -43 -21 -47 -7 -88 22 -60
69 -90 134 -85 144 12 166 186 32 246 -37 16 -55 15 -100 -9z"/>
<path d="M3222 1600 c-69 -42 -90 -120 -49 -181 50 -76 138 -86 205 -24 34 31
37 38 37 88 0 45 -5 60 -25 82 -53 57 -112 69 -168 35z"/>
<path d="M1792 1291 c-164 -42 -302 -225 -302 -401 0 -103 58 -236 131 -305
77 -72 217 -123 304 -111 192 26 330 161 365 355 23 128 -32 287 -131 376 -68
61 -138 87 -243 91 -50 2 -106 -1 -124 -5z m163 -201 c51 -12 110 -73 125
-131 19 -70 7 -154 -27 -197 -53 -66 -77 -77 -158 -77 -67 0 -77 3 -112 31
-103 82 -112 244 -18 337 44 43 110 56 190 37z"/>
<path d="M2650 1286 c-197 -65 -319 -274 -281 -484 29 -160 160 -290 329 -322
116 -23 243 19 339 113 l52 50 -72 74 -72 74 -29 -36 c-81 -101 -235 -100
-313 2 -24 31 -29 48 -31 113 -3 62 0 84 16 117 44 85 120 123 215 108 33 -6
53 -18 95 -61 29 -30 54 -54 55 -54 2 0 31 31 65 70 57 63 62 72 51 92 -15 30
-85 94 -124 114 -81 43 -216 57 -295 30z"/>
<path d="M3780 1286 c-164 -49 -289 -221 -290 -400 0 -55 27 -154 57 -205 84
-144 261 -232 406 -202 179 37 301 163 337 348 33 170 -69 368 -227 440 -69
32 -210 41 -283 19z m218 -213 c103 -66 123 -232 40 -335 -8 -9 -33 -26 -56
-38 -54 -28 -147 -25 -189 6 -59 44 -85 89 -90 156 -3 35 0 81 6 103 13 48 71
111 115 125 43 13 141 4 174 -17z"/>
<path d="M3187 1274 c-4 -4 -7 -182 -7 -396 l0 -388 105 0 105 0 -2 393 -3
392 -95 3 c-53 1 -99 0 -103 -4z"/>
<path d="M200 880 l0 -390 100 0 100 0 0 390 0 390 -100 0 -100 0 0 -390z"/>
<path d="M885 1254 c-50 -18 -112 -77 -136 -129 -43 -92 -14 -226 63 -290 59
-50 92 -58 258 -64 155 -6 155 -6 158 -30 7 -47 -13 -51 -265 -51 l-233 0 0
-100 0 -100 253 0 c252 0 253 0 305 26 188 94 188 352 0 434 -45 20 -77 24
-203 29 l-150 6 -3 28 c-7 55 1 57 234 57 l214 0 0 100 0 100 -227 -1 c-174 0
-238 -4 -268 -15z"/>
</g>
</svg>
