<?xml version="1.0" encoding="UTF-8"?>
<svg id="Layer_1" data-name="Layer 1" xmlns="http://www.w3.org/2000/svg" xmlns:xlink="http://www.w3.org/1999/xlink" viewBox="0 0 196.09 158.17">
  <defs>
    <style>
      .cls-1 {
        fill: #e90e8b;
      }

      .cls-2 {
        fill: #fff;
      }

      .cls-2, .cls-3, .cls-4 {
        fill-rule: evenodd;
      }

      .cls-5, .cls-3 {
        fill: #26225d;
      }

      .cls-6 {
        fill: url(#New_Gradient_Swatch_3);
      }

      .cls-7 {
        fill: url(#New_Gradient_Swatch_2);
      }

      .cls-4 {
        fill: #eb7025;
      }

      .cls-8 {
        fill: url(#linear-gradient);
      }

      .cls-9 {
        fill: url(#New_Gradient_Swatch_1);
      }
    </style>
    <radialGradient id="New_Gradient_Swatch_2" data-name="New Gradient Swatch 2" cx="96.35" cy="79.09" fx="96.35" fy="79.09" r="29.34" gradientUnits="userSpaceOnUse">
      <stop offset=".31" stop-color="#fff"/>
      <stop offset=".7" stop-color="#16498b"/>
      <stop offset=".76" stop-color="#183d78"/>
      <stop offset=".86" stop-color="#1b2e5f"/>
      <stop offset=".92" stop-color="#1d2957"/>
      <stop offset="1" stop-color="#445a80"/>
    </radialGradient>
    <radialGradient id="New_Gradient_Swatch_3" data-name="New Gradient Swatch 3" cx="97.65" cy="78.94" fx="97.65" fy="78.94" r="30.99" gradientUnits="userSpaceOnUse">
      <stop offset="0" stop-color="#fff"/>
      <stop offset=".23" stop-color="#fbfbfb"/>
      <stop offset=".44" stop-color="#f0f1f1"/>
      <stop offset=".63" stop-color="#dee0e0"/>
      <stop offset=".75" stop-color="#d0d2d3"/>
      <stop offset=".9" stop-color="#efeff0"/>
      <stop offset="1" stop-color="#fff"/>
    </radialGradient>
    <radialGradient id="New_Gradient_Swatch_1" data-name="New Gradient Swatch 1" cx="102.75" cy="68.92" fx="102.75" fy="68.92" r="26.76" gradientUnits="userSpaceOnUse">
      <stop offset="0" stop-color="#fff"/>
      <stop offset=".06" stop-color="#fefdfb"/>
      <stop offset=".11" stop-color="#fef7f0"/>
      <stop offset=".16" stop-color="#feeede"/>
      <stop offset=".2" stop-color="#fde1c5"/>
      <stop offset=".25" stop-color="#fcd0a5"/>
      <stop offset=".28" stop-color="#fcc289"/>
      <stop offset=".36" stop-color="#f2a85d"/>
      <stop offset=".44" stop-color="#ea8f34"/>
      <stop offset=".48" stop-color="#e78625"/>
      <stop offset=".72" stop-color="#ce5828"/>
      <stop offset=".82" stop-color="#b84b25"/>
      <stop offset="1" stop-color="#963822"/>
    </radialGradient>
    <linearGradient id="linear-gradient" x1="73.62" y1="87.39" x2="90.88" y2="87.39" gradientUnits="userSpaceOnUse">
      <stop offset="0" stop-color="#445a80"/>
      <stop offset=".31" stop-color="#1d2957"/>
      <stop offset=".48" stop-color="#1b3063"/>
      <stop offset=".78" stop-color="#164483"/>
      <stop offset=".84" stop-color="#16498b"/>
      <stop offset="1" stop-color="#fff"/>
    </linearGradient>
  </defs>
  <g>
    <path class="cls-4" d="M111.54,35.97c14.09,4.41,25.21,15.53,29.61,29.62h9.36c-4.89-19.07-19.91-34.08-38.98-38.98v9.36Z"/>
    <path class="cls-4" d="M141.16,92.59c-4.41,14.09-15.53,25.21-29.61,29.62v9.36c19.07-4.89,34.08-19.9,38.98-38.97h-9.36Z"/>
    <path class="cls-4" d="M54.93,65.59c4.4-14.09,15.53-25.21,29.61-29.62v-9.36c-19.07,4.9-34.08,19.91-38.97,38.98h9.36Z"/>
    <path class="cls-3" d="M74.47,65.59c2.4-4.19,5.89-7.68,10.07-10.08,2.73-1.56,5.78-2.68,9-3.21,1.46-.25,2.97-.37,4.5-.37s3.04.12,4.5.37c3.23.53,6.27,1.65,9,3.21,4.19,2.41,7.68,5.89,10.08,10.08,1.57,2.74,2.68,5.77,3.22,9,.24,1.46.37,2.96.37,4.49s-.13,3.04-.37,4.5c-.54,3.23-1.65,6.26-3.22,9-2.4,4.19-5.89,7.68-10.08,10.08-2.73,1.57-5.77,2.68-9,3.22-1.46.24-2.97.37-4.5.37s-3.04-.13-4.5-.37c-3.23-.54-6.27-1.65-9-3.22-4.19-2.4-7.68-5.89-10.07-10.08-1.57-2.74-2.68-5.77-3.22-9-.24-1.46-.37-2.97-.37-4.5s.13-3.03.37-4.49c.54-3.23,1.65-6.27,3.22-9M93.54,133.07v9.03c1.49.1,2.98.16,4.5.16s3.01-.06,4.5-.16v-27.12c3.15-.4,6.17-1.19,9-2.33,9.12-3.67,16.39-10.94,20.06-20.07,1.15-2.84,1.94-5.86,2.33-9h27.12c.1-1.49.16-2.98.16-4.5s-.06-3.01-.16-4.49h-27.12c-.39-3.14-1.19-6.17-2.33-9-3.67-9.12-10.94-16.4-20.06-20.07-2.84-1.15-5.85-1.93-9-2.33v-27.12c-1.49-.11-2.98-.16-4.5-.16s-3.01.06-4.5.16v27.12c-3.14.39-6.16,1.18-9,2.33-9.12,3.67-16.39,10.95-20.06,20.07-1.15,2.84-1.94,5.86-2.33,9h-27.12c-.11,1.49-.16,2.98-.16,4.49s.06,3.02.16,4.5h27.12c.39,3.14,1.19,6.16,2.33,9,3.67,9.12,10.94,16.4,20.06,20.07,2.84,1.14,5.86,1.93,9,2.33v18.09Z"/>
    <path class="cls-2" d="M83.86,74.52c2.52,0,4.57,2.04,4.57,4.56s-2.04,4.57-4.57,4.57-4.56-2.05-4.56-4.57,2.04-4.56,4.56-4.56"/>
    <path class="cls-2" d="M98.04,74.52c2.52,0,4.57,2.04,4.57,4.56s-2.05,4.57-4.57,4.57-4.57-2.05-4.57-4.57,2.05-4.56,4.57-4.56"/>
    <path class="cls-2" d="M112.23,74.52c2.52,0,4.56,2.04,4.56,4.56s-2.04,4.57-4.56,4.57-4.57-2.05-4.57-4.57,2.05-4.56,4.57-4.56"/>
    <path class="cls-4" d="M45.57,92.59c1.7,6.63,4.62,12.76,8.5,18.15l-5.74,21.43c-.59,2.22.16,4.45,1.99,5.84,1.81,1.4,4.17,1.55,6.16.41l18.14-10.47c3.15,1.52,6.48,2.74,9.93,3.62v-9.36c-3.57-1.12-6.94-2.66-10.07-4.58l-8.66,5-6.63,3.82,2.05-7.63,2.71-10.12c-2.63-3.03-4.87-6.41-6.63-10.06-.93-1.95-1.73-3.97-2.38-6.05h-9.36Z"/>
  </g>
  <g>
    <circle class="cls-5" cx="98.42" cy="79.08" r="37.7"/>
    <g>
      <path class="cls-7" d="M78.95,74.1c-3.84,0-7.58.39-11.2,1.12-.31.06-.75.14-.83.28-.31.63-.3,2.34-.3,3.58,0,7.54,2.63,14.46,7.01,19.91.16-.41.32-.81.49-1.22,3.64-8.74,9.29-16.42,16.38-22.49-3.73-.78-7.59-1.19-11.54-1.19Z"/>
      <path class="cls-1" d="M95.2,72.31c-.21-.07-.42-.15-.64-.22,0,0-.01,0-.02.01.22.07.43.14.65.21Z"/>
      <path class="cls-1" d="M95.2,72.31c.23.08.47.16.7.24,0,0,.01,0,.02-.01-.24-.08-.48-.16-.72-.23Z"/>
      <path class="cls-6" d="M90.5,75.28c.19.28.38,1.41.38,1.41-6.76,6.21-12.08,13.95-15.43,22.68.12.13.24.25.36.38,1.87,2,4,3.75,6.34,5.19.38-1.79.84-3.56,1.38-5.29,1.86-5.96,4.63-11.52,8.17-16.5,1.54-2.17,3.22-4.24,5.04-6.18.94-1,1.9-1.97,2.91-2.91-1.23-.54-2.47-1.04-3.74-1.5-.23-.08-.46-.16-.7-.24-.22-.07-.44-.14-.65-.21-1.67-.51-3.37-.95-5.09-1.31-3.92-.82-7.99-1.26-12.17-1.26-2.89,0-5.73.21-8.52.61-.48,1.64-.82,3.33-1.02,5.06,3.62-.73,7.36-1.12,11.2-1.12s7.82.41,11.54,1.19h0Z"/>
      <path class="cls-9" d="M128.8,69.65c-.93-3.01-2.3-5.82-4.02-8.37-.04-.06-.09-.12-.13-.18-.18-.26-.35-.51-.54-.76-5.79-7.92-15.14-13.06-25.69-13.06-6.71,0-12.94,2.09-18.08,5.64-5.75,3.99-10.13,9.81-12.27,16.63-.08.24-.18.53-.1.63.1.09.49.01.8-.03,2.78-.4,5.62-.61,8.52-.61,4.17,0,8.24.44,12.17,1.26,1.73.36,3.42.8,5.09,1.31,0,0,0,0,.02-.01.21.07.42.15.64.22.24.08.48.15.72.23,0,0-.01,0-.02.01,1.27.46,2.51.96,3.74,1.5-1.01.94-1.97,1.91-2.91,2.91-1.81,1.94-3.5,4.01-5.04,6.18-3.53,4.99-6.31,10.54-8.17,16.5-.54,1.73-1,3.5-1.38,5.29-.09.44-.23,1.27.13,1.5,1.58.95,3.17,1.76,5.09,2.48,3.44,1.27,7.16,1.97,11.04,1.97,10.78,0,20.31-5.37,26.06-13.57.3-.44.6-.88.88-1.32.19-.3.37-.6.54-.9,2.75-4.7,4.33-10.17,4.33-16.01,0-3.28-.5-6.45-1.42-9.43Z"/>
      <path class="cls-8" d="M90.49,75.29h0c-7.08,6.06-12.73,13.75-16.37,22.49-.17.41-.34.8-.5,1.21,0,0,.34.19.57.26.3.1.42.12.71.16.18.03.79.17.56-.04-.01-.02,4.51-12.82,15.43-22.68-.21-1.22-.39-1.4-.39-1.4Z"/>
    </g>
  </g>
</svg>
